<svg width="150" height="150" viewBox="0 0 150 150" fill="none" xmlns="http://www.w3.org/2000/svg">
<rect width="150" height="150" rx="50" fill="white"/>
<path d="M41.9942 48.4899C39.7686 44.3057 44.3057 39.7685 48.4899 41.9941L74.5168 55.8382V74.5167H55.8383L41.9942 48.4899Z" fill="#1154C3"/>
<path d="M107.039 100.544C109.265 104.728 104.728 109.265 100.544 107.039L74.5168 93.1952V74.5167H93.1952L107.039 100.544Z" fill="#1154C3"/>
<path d="M48.4899 107.039C44.3057 109.265 39.7686 104.728 41.9942 100.544L55.8383 74.5167H74.5168V93.1952L48.4899 107.039Z" fill="#1154C3"/>
<path d="M100.544 41.9941C104.728 39.7685 109.265 44.3057 107.039 48.4899L93.1952 74.5167H74.5168V55.8382L100.544 41.9941Z" fill="#1154C3"/>
<path d="M42.8385 42.8384C44.2176 41.4593 46.3978 40.8814 48.4899 41.9941L74.5168 55.8382V74.5167L42.8385 42.8384Z" fill="#1B62D7"/>
<path d="M106.195 42.8384C107.574 44.2175 108.152 46.3978 107.039 48.4899L93.1952 74.5167H74.5168L106.195 42.8384Z" fill="#1B62D7"/>
<path d="M106.195 106.195C104.816 107.574 102.636 108.152 100.544 107.039L74.5168 93.1952V74.5167L106.195 106.195Z" fill="#1B62D7"/>
<path d="M74.5168 74.5167L42.8385 106.195C41.4594 104.816 40.8814 102.636 41.9942 100.544L55.8383 74.5167H74.5168Z" fill="#1B62D7"/>
<path d="M69.2586 23.2492C70.9897 17.5836 79.0103 17.5836 80.7414 23.2492L91.5096 58.4904L75 75L58.4904 58.4904L69.2586 23.2492Z" fill="#136CFF"/>
<path d="M80.7415 126.751C79.0103 132.416 70.9897 132.416 69.2586 126.751L58.4904 91.5096L75 75L91.5096 91.5096L80.7415 126.751Z" fill="#136CFF"/>
<path d="M23.2492 80.7415C17.5836 79.0103 17.5836 70.9897 23.2492 69.2586L58.4904 58.4904L75 75L58.4904 91.5096L23.2492 80.7415Z" fill="#136CFF"/>
<path d="M126.751 69.2586C132.416 70.9897 132.416 79.0103 126.751 80.7414L91.5096 91.5096L75 75L91.5096 58.4904L126.751 69.2586Z" fill="#136CFF"/>
<path d="M75 19.0001C77.4379 19.0001 79.8759 20.4164 80.7414 23.2492L91.5096 58.4904L75 75V19.0001Z" fill="#1B62D7"/>
<path d="M131 75C131 77.4379 129.584 79.8759 126.751 80.7414L91.5096 91.5096L75 75H131Z" fill="#1B62D7"/>
<path d="M75 131C72.5621 131 70.1241 129.584 69.2586 126.751L58.4904 91.5096L75 75V131Z" fill="#1B62D7"/>
<path d="M75 75H19.0001C19.0001 72.5621 20.4164 70.1241 23.2492 69.2586L58.4904 58.4904L75 75Z" fill="#1B62D7"/>
</svg>
